# xmcd
#
# Track frame offsets:
# 150
# 19058
# 36991
# 56979
# 80267
# 97652
# 113777
# 133195
# 153438
# 172061
# 190661
# 210431
# 228086
# 243116
# 260179
#
# Disc length: 3974 seconds
#
# Revision: 1
# Processed by: cddbd v1.5.2PL0 Copyright (c) Steve Scherf et al.
# Submitted via: CedeCatalogueitor 2.6.0.6 http://personales.ya.com/cdcatalogueitor
#
DISCID=c20f840f
DTITLE=Earth, Wind And Fire - Faces
DYEAR=1980
DGENRE=
TTITLE0=Let Me Talk
TTITLE1=Turn It Into Something Good
TTITLE2=Pride
TTITLE3=You
TTITLE4=Sparkle
TTITLE5=Back On The Road
TTITLE6=Song In My Heart
TTITLE7=You Went Away
TTITLE8=And Love Goes On
TTITLE9=Sailaway
TTITLE10=Take It To The Sky
TTITLE11=Win Or Lose
TTITLE12=Share Your Love
TTITLE13=In Time
TTITLE14=Faces
EXTD=
EXTT0=
EXTT1=
EXTT2=
EXTT3=
EXTT4=
EXTT5=
EXTT6=
EXTT7=
EXTT8=
EXTT9=
EXTT10=
EXTT11=
EXTT12=
EXTT13=
EXTT14=
PLAYORDER=
